<svg version="1.2" xmlns="http://www.w3.org/2000/svg" viewBox="0 0 200 200" width="200" height="200">
	<style>
		.s0 { fill: #7c5cff } 
		.s1 { fill: none;stroke: #7c5cff;stroke-miterlimit:100;stroke-width: 8 } 
	</style>
	<g id="svgg">
		<path id="path0" fill-rule="evenodd" class="s0" d="m56.19 60.85l1.67 2.9 3.74-2.48c6.74-4.46 16.22-4.36 17.95 0.2l0.93 2.45 5.67-2.98c17.68-9.3 21.85-2.27 13.46 22.67-6.57 19.55-7.26 22.53-5.33 23.27 2.12 0.81 8.76-6 12.11-12.43 2.56-4.89 4.84-6.49 6.65-4.68 0.83 0.83-5.53 12.55-9.6 17.69-3.94 4.98-7.58 6.75-13.86 6.75-13.04 0-14.62-7.82-6.01-29.63 6.15-15.57 6.86-19.59 3.47-19.59-2.26 0-3.84 3.21-12.09 24.59l-7.95 20.61h-15.35l7.42-19.71c7.34-19.48 8.42-23.75 6.38-25.02-2.83-1.74-5.99 4.48-14.06 27.66l-5.77 16.57-8.15 0.29c-4.48 0.16-8.14 0.16-8.14-0.02 0-0.17 3.16-9.1 7.03-19.86 3.87-10.75 7.03-20.35 7.03-21.33 0-5.87-9.38 2.94-13.72 12.89-2.26 5.2-3.24 6.43-5.09 6.43-6.12 0 6.91-23.5 15.57-28.07 6.1-3.22 13.95-2.82 16.04 0.83zm121.6 21.59c-1.25 22.56-22.08 38.38-39.11 29.69-2.24-1.14-4.19-1.93-4.33-1.76-0.15 0.18-2 5.31-4.12 11.41-4.09 11.77-4.1 14.53-0.06 14.53 4.2 0 5.64 1.05 5.64 4.13v2.9h-44.2v-2.94c0-3.1 0.48-3.4 7.12-4.52 1.98-0.33 4.63-1.7 5.89-3.03 2-2.13 21.96-55.2 23.68-62.99 1.34-6.05-3.58-3.67-8.67 4.18-4.96 7.65-10.83 7.63-6.92-0.02 6.73-13.19 20.12-19.19 27.15-12.17 2.69 2.69 3.04 2.79 5.07 1.36 1.2-0.84 4.27-2.34 6.83-3.34 16.03-6.27 27.09 3.32 26.03 22.57zm-37.34 20.64c1.16 4.67 3.35 4.96 7.81 1.04 8.56-7.51 15.2-31.72 10.38-37.88-5.58-7.13-21.24 24.57-18.19 36.84z"/>
		<path id="Shape 1" fill-rule="evenodd" class="s1" d="m72.38 178.88c-52.17 0.11-80.8-39.51-65.27-87.42 15.1-46.59 66.85-84.58 116.89-86.13 50.89-1.58 82.45 34.96 69.49 82.97-13.33 49.39-68.01 90.47-121.11 90.58z"/>
	</g>
</svg>